# xmcd
#
# Track frame offsets:
#	150
#	11297
#	25802
#	45513
#	57475
#	72045
#	87333
#	104626
#	123797
#	139698
#	164647
#	183481
#	202929
#	221440
#	238602
#	258719
#	271416
#
# Disc length: 3829 seconds
#
# Revision: 0
# Processed by: cddbd v1.5.1PL0 Copyright (c) Steve Scherf et al.
# Submitted via: dBpowerAMP V4.0
#
DISCID=f00ef311
DTITLE=Frédérique Spigt - Mans Genoeg
DYEAR=2004
DGENRE=Blues
TTITLE0=Little Acrobat
TTITLE1=Something About You
TTITLE2=Mans Genoeg
TTITLE3=Feel The Glow4
TTITLE4=Half Without You
TTITLE5=Je Eigen Persoonlijke Jezus
TTITLE6=Thuis
TTITLE7=Stand And Stare
TTITLE8=She Came To Win
TTITLE9=Too Hard To Understand
TTITLE10=Sterker Dan Wij Twee
TTITLE11=De Dood Is Zoet
TTITLE12=Zoas Ut Hier An Toe Geet
TTITLE13=Neem Mijn Jas
TTITLE14=Hoorspel
TTITLE15=I Skipped A Heartbreak
TTITLE16=Bloed
EXTD=an awesome cd and dvd
EXTT0=
EXTT1=
EXTT2=
EXTT3=
EXTT4=
EXTT5=
EXTT6=
EXTT7=
EXTT8=
EXTT9=
EXTT10=
EXTT11=
EXTT12=
EXTT13=
EXTT14=
EXTT15=
EXTT16=
PLAYORDER=
